Patient4_TMGait_0pt5_01_left_30_EMG.mot
version=1
nRows=13
nColumns=33
inDegrees=no
endheader
time	1LAddLong	2LGlutMax	3LGlutMed	4LIliopsoas	5LSemiMemb	6LBicFemLong	7LRecFem	8LVastMed	9LVastLat	10LGasMed	11LTibAnt	12lTibPost	13LPeroneusLong	14LSol	15LExtDigLong	16LFlexDigLong	17RAddLong	18RGlutMax	19RGlutMed	20RIliopsoas	21RSemiMemb	22RBicFemLong	23RRecFem	24RVastMed	25RVastLat	26RGasMed	27RTibAnt	28RTibPost	29RPeroneusLong	30RSol	31RExtDigLong	32RFlexDigLong
40.507	0.085754	0.99396	0.058746	-0.001526	-0.16373	-0.25314	0.11093	0.021362	0.14053	-0.053711	0.04837	-0.003357	-0.078125	0.14267	-0.007782	0.047913	0.050354	-0.10254	-0.021667	-0.036926	0.036011	0.30243	0.28015	-0.11581	0.011444	-0.001068	-0.011597	0.010529	0.2533	-0.20279	-0.006409	-0.016632
40.508	0.068512	0.87936	0.031738	0.027771	0.003815	-0.17441	0.054779	0.009155	0.052795	-0.05127	0.016937	0.00412	-0.014648	0.1532	-0.005188	0.055084	0.006714	-0.12238	0.001221	-0.13687	0.024261	0.35614	0.27954	-0.10025	0.040283	-0.024261	-0.060425	-0.19959	-0.53528	-0.72754	-0.009613	-0.012817
40.509	0.071869	0.78659	0.011139	0.028687	0.13412	-0.049438	-0.020905	-0.02243	-0.016327	-0.00824	0.024719	0.007172	-0.074005	0.24216	-0.026398	0.049591	-0.0177	-0.12375	0.040588	-0.071869	-0.01236	0.30029	0.24124	-0.089569	0.032501	-0.055084	-0.067596	-0.045013	-0.28793	-0.57098	-0.005188	-0.010223
40.51	0.073547	0.7103	0.15579	0.039063	0.068817	0.041351	-0.14938	-0.036621	-0.103	0.053711	0.038147	0.001678	-0.13321	0.13001	0.23743	0.041351	-0.051575	-0.11261	0.095062	0.077209	-0.029144	0.26779	0.27268	-0.13214	0.028839	-0.039063	-0.058441	-0.27023	-0.051727	-0.004425	-0.001984	-0.024567
40.511	0.053558	0.63644	0.17075	0.032349	0.088806	0.21042	-0.11581	-0.021973	-0.24384	0.11566	0.071259	0.001068	-0.10727	0.13809	0.47546	0.050812	-0.065002	-0.19562	0.059967	0.13092	-0.03067	0.27741	0.28076	-0.13672	0.031738	-0.031281	0.019989	-0.4602	0.043488	0.392	-0.006104	-0.018005
40.512	0.045166	0.62912	0.07782	0.009308	0.045624	0.35904	-0.11871	0.004425	-0.22919	0.077972	0.13947	-0.000763	0.067444	0.23239	0.42221	0.05722	-0.085297	-0.22537	0.006561	0.11902	-0.035858	0.23697	0.24292	-0.17288	0.016632	-0.02121	0.026398	0.49789	-0.00061	0.26352	-0.002441	-0.014801
40.513	0.020752	0.55405	0.026703	0.005951	-0.00351	0.43243	-0.10712	-0.002747	-0.23926	-0.00824	0.17059	0.002899	0.19318	0.24521	0.66773	0.052795	-0.099335	-0.18478	0.014648	0.11963	-0.033264	0.21179	0.27237	-0.09552	0.028839	-0.012054	0.024719	0.23804	0.20844	0.12131	0.006714	-0.010986
40.514	0.008392	0.51209	-0.050049	-0.017242	-0.041809	0.08606	-0.22827	0.012054	-0.14893	-0.0383	0.13443	0.004425	0.27878	0.24277	-0.20767	0.046082	-0.16113	-0.20966	0.077209	0.050201	-0.028992	0.15137	0.2385	-0.026093	0.011444	-0.011902	0.01709	0.25009	0.51544	0.15182	-0.00473	-0.005798
40.515	0.016479	0.42984	-0.059052	-0.004883	-0.078278	0.072021	-0.34653	0.009766	-0.053101	-0.022278	-0.013733	0.001831	0.29297	0.20691	-0.25696	0.037537	-0.15747	-0.16281	0.067749	0.01236	-0.0354	0.11475	0.21622	-0.016327	0.012054	-0.010376	0.001678	0.16953	0.23697	0.050964	0.003967	-0.00061
40.516	0.023346	0.29617	-0.10284	0.012512	-0.032806	-0.000153	-0.3894	-0.009766	0.009766	0.023499	-0.065613	0.01709	0.17319	0.06134	-0.39032	0.03952	-0.12161	-0.12558	0.058289	-0.002136	-0.065002	0.15152	0.18417	-0.002594	0.013428	-0.001831	-0.013123	0.074158	0.071564	-0.16556	-0.000458	-0.002899
40.517	0.019836	0.20142	-0.16037	0.032654	0.042877	0.023193	-0.37094	-0.001984	-0.016479	-0.006256	-0.22003	-0.001678	0.051117	-0.046844	-0.57342	0.02594	-0.099335	-0.14877	0.059814	0.016479	-0.086212	0.21637	0.15778	0.055237	0.011902	-0.005188	-0.025787	-0.003967	0.000763	-0.24185	-0.001221	-0.003967
40.518	0.015259	0.079803	-0.26306	0.046387	0.033875	0.15243	-0.3421	-0.006561	0.019684	-0.092316	-0.099487	0.014496	-0.000305	-0.068817	-0.44723	-0.1207	-0.010071	-0.19241	-0.01709	0.015411	-0.066223	0.24765	0.19913	0.057068	0.008545	-0.009155	-0.015259	-0.11795	-0.25803	-0.052185	-0.001526	-0.000458
40.519	0.016327	0.058289	-0.29739	0.013733	-0.008087	0.19653	-0.33768	-0.015564	0.061798	-0.079956	-0.013428	0.005493	-0.048981	-0.053558	-0.28122	-0.49515	0.041962	-0.26413	0.10819	0.006866	-0.062103	0.298	0.20065	0.045471	0.000916	-0.001526	0.003967	-0.05188	-0.28397	0.06134	0.006104	-0.003815
